<svg width="16" height="16" viewBox="0 0 16 16" fill="none" xmlns="http://www.w3.org/2000/svg">
<path d="M9.32762 1.65457L10.6259 4.25111C10.8029 4.60518 11.275 4.95926 11.6684 5.01827L14.0191 5.41168C15.5239 5.6674 15.878 6.74929 14.7961 7.83119L12.9667 9.6704C12.6618 9.9753 12.4848 10.5753 12.5831 11.008L13.1044 13.28C13.5175 15.07 12.5635 15.7683 10.98 14.834L8.77684 13.5259C8.37359 13.2898 7.72445 13.2898 7.3212 13.5259L5.10824 14.8241C3.52475 15.7585 2.57072 15.0602 2.9838 13.2701L3.50508 10.9982C3.60343 10.5753 3.4264 9.9753 3.1215 9.66056L1.30196 7.84102C0.220064 6.75913 0.574138 5.6674 2.07895 5.42152L4.4296 5.0281C4.82302 4.95926 5.29512 4.61502 5.47215 4.26094L6.77042 1.66441C7.46873 0.248111 8.62931 0.248111 9.32762 1.65457Z" fill="#ACACAC"/>
</svg>
